<svg width="642" height="79" viewBox="0 0 642 79" fill="none" xmlns="http://www.w3.org/2000/svg">
<path d="M71.0312 12.2188C69.9896 15.6771 68.8438 18.9583 67.5938 22.0625C66.3438 25.1667 65.1562 27.9167 64.0312 30.3125C62.7396 33.1042 61.4375 35.6875 60.125 38.0625C59.0625 39.9375 58.1667 41.5729 57.4375 42.9688C56.7292 44.3646 56.1562 45.5625 55.7188 46.5625C55.2812 47.5417 54.9688 48.3646 54.7812 49.0312C54.5938 49.6771 54.5 50.2083 54.5 50.625C54.5 51.0625 54.5938 51.3958 54.7812 51.625C54.9688 51.875 55.1875 52.0625 55.4375 52.1875C55.7083 52.3125 55.9688 52.3854 56.2188 52.4062C56.4896 52.4479 56.7083 52.4688 56.875 52.4688C57.6042 52.4688 58.4688 52.2604 59.4688 51.8438C60.4896 51.4479 61.5833 50.8854 62.75 50.1562C63.9375 49.4062 65.1771 48.5104 66.4688 47.4688C67.7604 46.4062 69.0417 45.2188 70.3125 43.9062C71.5833 42.5938 72.8125 41.1771 74 39.6562C75.2083 38.1146 76.3125 36.4896 77.3125 34.7812C78.9167 31.9896 80.1979 29.4062 81.1562 27.0312C80.5521 25.8438 80.1042 24.625 79.8125 23.375C79.5208 22.1042 79.375 20.9062 79.375 19.7812C79.375 18.1562 79.625 16.8542 80.125 15.875C80.6458 14.8958 81.3646 14.4062 82.2812 14.4062C82.7812 14.4062 83.1979 14.5312 83.5312 14.7812C83.8854 15.0312 84.1667 15.3542 84.375 15.75C84.5833 16.1458 84.7292 16.5833 84.8125 17.0625C84.9167 17.5208 84.9688 17.9792 84.9688 18.4375C84.9688 19.4167 84.8229 20.5417 84.5312 21.8125C84.2604 23.0833 83.8542 24.4583 83.3125 25.9375C82.7917 27.3958 82.1458 28.9479 81.375 30.5938C80.6042 32.2188 79.7188 33.8854 78.7188 35.5938C77.7188 37.3021 76.6042 38.9479 75.375 40.5312C74.1667 42.0938 72.8958 43.5625 71.5625 44.9375C70.25 46.3125 68.9062 47.5729 67.5312 48.7188C66.1771 49.8438 64.8542 50.8021 63.5625 51.5938C62.2917 52.4062 61.0729 53.0312 59.9062 53.4688C58.7604 53.9271 57.75 54.1562 56.875 54.1562C55.2292 54.1562 53.9375 53.7812 53 53.0312C52.0625 52.2812 51.5938 51.0833 51.5938 49.4375C51.5938 48.5417 51.7083 47.6458 51.9375 46.75C52.1875 45.8542 52.5417 44.8854 53 43.8438C53.4792 42.8021 54.0625 41.6667 54.75 40.4375C55.4375 39.1875 56.2292 37.7812 57.125 36.2188C55.0417 38.9896 52.7917 41.6771 50.375 44.2812C47.9792 46.8646 45.4167 49.1771 42.6875 51.2188C41.4583 52.1354 40.3333 52.8958 39.3125 53.5C38.2917 54.125 37.3542 54.625 36.5 55C35.6667 55.375 34.9062 55.6354 34.2188 55.7812C33.5312 55.9479 32.9062 56.0312 32.3438 56.0312C31.5312 56.0312 30.8229 55.9167 30.2188 55.6875C29.6354 55.4583 29.1458 55.1458 28.75 54.75C28.375 54.375 28.0938 53.9167 27.9062 53.375C27.7396 52.8542 27.6562 52.2812 27.6562 51.6562C27.6562 50.6146 27.8125 49.625 28.125 48.6875C28.4375 47.75 28.8958 46.7917 29.5 45.8125C30.1875 44.7292 31 43.5312 31.9375 42.2188C32.8958 40.9062 33.8854 39.5312 34.9062 38.0938C35.9479 36.6562 36.9688 35.1875 37.9688 33.6875C38.9896 32.1875 39.8958 30.6979 40.6875 29.2188C41.5 27.7396 42.1458 26.3021 42.625 24.9062C43.125 23.5104 43.375 22.1979 43.375 20.9688C43.375 19.0312 42.9896 17.2604 42.2188 15.6562C41.4688 14.0521 40.3854 12.6771 38.9688 11.5312C37.5521 10.3854 35.8333 9.5 33.8125 8.875C31.8125 8.25 29.5625 7.9375 27.0625 7.9375C23.625 7.9375 20.4688 8.4375 17.5938 9.4375C14.7188 10.4375 12.2396 11.8229 10.1562 13.5938C8.09375 15.3438 6.47917 17.4167 5.3125 19.8125C4.16667 22.1875 3.59375 24.75 3.59375 27.5C3.59375 29.1875 3.85417 30.7292 4.375 32.125C4.91667 33.5 5.66667 34.6875 6.625 35.6875C7.60417 36.6875 8.78125 37.4688 10.1562 38.0312C11.5521 38.5729 13.1042 38.8438 14.8125 38.8438C16.7917 38.8438 18.625 38.5 20.3125 37.8125C22 37.1042 23.5312 36.1458 24.9062 34.9375C26.3021 33.7292 27.5417 32.3125 28.625 30.6875C29.7083 29.0417 30.625 27.2812 31.375 25.4062L32.7812 25.9062C30.7604 30.9271 28.0833 34.7292 24.75 37.3125C21.4167 39.875 17.4583 41.1562 12.875 41.1562C10.9375 41.1562 9.17708 40.8333 7.59375 40.1875C6.01042 39.5208 4.65625 38.6042 3.53125 37.4375C2.40625 36.25 1.53125 34.8438 0.90625 33.2188C0.302083 31.5729 0 29.7708 0 27.8125C0 25.1667 0.4375 22.7917 1.3125 20.6875C2.1875 18.5833 3.34375 16.7396 4.78125 15.1562C6.23958 13.5521 7.88542 12.1875 9.71875 11.0625C11.5729 9.9375 13.4688 9.02083 15.4062 8.3125C17.3438 7.60417 19.2396 7.09375 21.0938 6.78125C22.9479 6.44792 24.6146 6.28125 26.0938 6.28125C28.8854 6.28125 31.4688 6.625 33.8438 7.3125C36.2188 7.97917 38.2708 8.98958 40 10.3438C41.75 11.6771 43.1146 13.3333 44.0938 15.3125C45.0729 17.2917 45.5625 19.5833 45.5625 22.1875C45.5625 24.0833 45.1979 26.1875 44.4688 28.5C43.7604 30.7917 42.5208 33.2604 40.75 35.9062C39.125 38.3438 37.6458 40.4583 36.3125 42.25C34.9792 44.0417 33.8333 45.5938 32.875 46.9062C31.9375 48.1979 31.2083 49.2812 30.6875 50.1562C30.1667 51.0312 29.9062 51.7604 29.9062 52.3438C29.9062 52.9479 30.125 53.4375 30.5625 53.8125C31 54.1875 31.6042 54.375 32.375 54.375C33.4792 54.375 34.8125 54 36.375 53.25C37.9583 52.5 39.7292 51.3958 41.6875 49.9375C43.625 48.5 45.4688 46.9167 47.2188 45.1875C48.9896 43.4583 50.6562 41.6667 52.2188 39.8125C53.8021 37.9375 55.2917 36.0312 56.6875 34.0938C58.0833 32.1562 59.375 30.2604 60.5625 28.4062C61.75 26.5312 62.8333 24.7292 63.8125 23C64.7917 21.25 65.6562 19.6458 66.4062 18.1875C67.1562 16.7083 67.7917 15.4062 68.3125 14.2812C68.8333 13.1354 69.2292 12.2396 69.5 11.5938L71.0312 12.2188ZM82 24.875C82.4792 23.5417 82.8229 22.3333 83.0312 21.25C83.2396 20.1667 83.3438 19.2396 83.3438 18.4688C83.3438 18.3229 83.3333 18.1146 83.3125 17.8438C83.3125 17.5521 83.2708 17.2812 83.1875 17.0312C83.125 16.7604 83.0208 16.5312 82.875 16.3438C82.7292 16.1354 82.5312 16.0312 82.2812 16.0312C81.9271 16.0312 81.625 16.3854 81.375 17.0938C81.1458 17.8021 81.0312 18.6667 81.0312 19.6875C81.0312 20.4583 81.1042 21.2917 81.25 22.1875C81.3958 23.0625 81.6458 23.9583 82 24.875ZM84.9375 43.0312C84.8958 43.2812 84.8646 43.5312 84.8438 43.7812C84.8229 44.0312 84.8125 44.2812 84.8125 44.5312C84.8125 45.2812 84.9167 46 85.125 46.6875C85.3542 47.3542 85.6771 47.9479 86.0938 48.4688C86.5312 48.9688 87.0625 49.3646 87.6875 49.6562C88.3333 49.9479 89.0625 50.0938 89.875 50.0938C92.6042 50.0938 95.2396 49.1667 97.7812 47.3125C100.323 45.4583 102.854 42.5208 105.375 38.5L106.438 39.4375C105.062 41.7292 103.667 43.6667 102.25 45.25C100.833 46.8125 99.4167 48.0833 98 49.0625C96.6042 50.0417 95.2292 50.75 93.875 51.1875C92.5208 51.625 91.2292 51.8438 90 51.8438C89.1042 51.8438 88.1562 51.7188 87.1562 51.4688C86.1562 51.2188 85.2292 50.8021 84.375 50.2188C83.5417 49.6354 82.8542 48.8542 82.3125 47.875C81.75 46.8958 81.4688 45.6771 81.4688 44.2188C81.4688 42.6562 81.7396 41.1562 82.2812 39.7188C82.8021 38.2604 83.4896 36.9062 84.3438 35.6562C85.1979 34.4062 86.1771 33.2708 87.2812 32.25C88.3854 31.2083 89.5 30.3229 90.625 29.5938C91.7708 28.8646 92.8854 28.3021 93.9688 27.9062C95.0521 27.4896 96.0104 27.2812 96.8438 27.2812C97.3854 27.2812 97.9375 27.3646 98.5 27.5312C99.0625 27.6979 99.5625 27.9583 100 28.3125C100.458 28.6667 100.823 29.1354 101.094 29.7188C101.385 30.3021 101.531 31 101.531 31.8125C101.531 32.9167 101.271 33.9583 100.75 34.9375C100.25 35.8958 99.5729 36.7917 98.7188 37.625C97.8646 38.4375 96.875 39.1771 95.75 39.8438C94.625 40.4896 93.4479 41.0417 92.2188 41.5C90.9896 41.9583 89.75 42.3229 88.5 42.5938C87.25 42.8646 86.0625 43.0104 84.9375 43.0312ZM85.1875 41.6875C86.5833 41.5417 87.8958 41.25 89.125 40.8125C90.3542 40.375 91.4792 39.8438 92.5 39.2188C93.5208 38.5729 94.4271 37.875 95.2188 37.125C96.0312 36.375 96.7083 35.6146 97.25 34.8438C97.7917 34.0729 98.2083 33.3333 98.5 32.625C98.7917 31.9167 98.9375 31.2812 98.9375 30.7188C98.9375 30.1562 98.7812 29.7083 98.4688 29.375C98.1771 29.0417 97.8229 28.875 97.4062 28.875C96.4896 28.875 95.4583 29.2083 94.3125 29.875C93.1667 30.5208 92.0208 31.4271 90.875 32.5938C89.7292 33.7396 88.6458 35.0938 87.625 36.6562C86.625 38.2188 85.8125 39.8958 85.1875 41.6875ZM126.5 4.6875C127.229 4.6875 127.833 4.86458 128.312 5.21875C128.812 5.57292 129.062 6.21875 129.062 7.15625C129.062 7.80208 128.927 8.57292 128.656 9.46875C128.406 10.3646 128.052 11.3438 127.594 12.4062C127.156 13.4479 126.635 14.5521 126.031 15.7188C125.427 16.8646 124.771 18.0104 124.062 19.1562C123.375 20.3021 122.646 21.4167 121.875 22.5C121.125 23.5833 120.375 24.5833 119.625 25.5C118.125 27.3542 116.823 28.9167 115.719 30.1875C114.635 31.4583 113.698 32.5417 112.906 33.4375C112.115 34.3125 111.448 35.0312 110.906 35.5938C110.365 36.1354 109.885 36.6042 109.469 37C109.052 37.3958 108.667 37.7604 108.312 38.0938C107.958 38.4062 107.594 38.7604 107.219 39.1562C107.052 39.9479 106.969 40.7083 106.969 41.4375C106.99 42.1458 107 42.8021 107 43.4062C107 45.2188 107.292 46.5625 107.875 47.4375C108.458 48.3125 109.281 48.75 110.344 48.75C111.052 48.75 111.76 48.5729 112.469 48.2188C113.198 47.8438 113.917 47.3646 114.625 46.7812C115.333 46.1979 116.021 45.5417 116.688 44.8125C117.354 44.0625 117.979 43.3125 118.562 42.5625C119.167 41.7917 119.708 41.0521 120.188 40.3438C120.667 39.6354 121.083 39.0208 121.438 38.5L122.594 39.375C122.531 39.4583 122.323 39.7917 121.969 40.375C121.635 40.9375 121.188 41.625 120.625 42.4375C120.062 43.25 119.396 44.125 118.625 45.0625C117.854 45.9792 117.021 46.8333 116.125 47.625C115.229 48.4167 114.281 49.0729 113.281 49.5938C112.302 50.1146 111.302 50.375 110.281 50.375C109.427 50.375 108.604 50.2188 107.812 49.9062C107.042 49.5729 106.354 49.0625 105.75 48.375C105.167 47.6667 104.688 46.7708 104.312 45.6875C103.958 44.6042 103.781 43.3021 103.781 41.7812C103.781 39.8854 104 37.9062 104.438 35.8438C104.896 33.7604 105.51 31.6771 106.281 29.5938C107.052 27.4896 107.958 25.4167 109 23.375C110.042 21.3333 111.146 19.3958 112.312 17.5625C113.5 15.7083 114.729 14 116 12.4375C117.292 10.8542 118.552 9.48958 119.781 8.34375C121.031 7.19792 122.229 6.30208 123.375 5.65625C124.521 5.01042 125.562 4.6875 126.5 4.6875ZM107.781 36.375C109.552 34.5417 111.26 32.6875 112.906 30.8125C114.573 28.9167 116.125 27.0521 117.562 25.2188C119.021 23.3646 120.354 21.5729 121.562 19.8438C122.771 18.0938 123.802 16.4479 124.656 14.9062C125.51 13.3646 126.177 11.9583 126.656 10.6875C127.135 9.41667 127.375 8.32292 127.375 7.40625C127.375 7.23958 127.292 7.02083 127.125 6.75C126.958 6.45833 126.76 6.3125 126.531 6.3125C125.885 6.3125 125.031 6.73958 123.969 7.59375C122.906 8.44792 121.75 9.61458 120.5 11.0938C119.271 12.5521 117.99 14.2604 116.656 16.2188C115.344 18.1771 114.104 20.2708 112.938 22.5C111.771 24.7292 110.729 27.0312 109.812 29.4062C108.896 31.7812 108.219 34.1042 107.781 36.375ZM137.562 31.1875C137.688 30.8542 137.75 30.5 137.75 30.125C137.75 29.4583 137.479 28.9375 136.938 28.5625C136.417 28.1667 135.583 27.9688 134.438 27.9688C133.5 27.9688 132.552 28.1771 131.594 28.5938C130.656 28.9896 129.75 29.5417 128.875 30.25C128 30.9583 127.177 31.8021 126.406 32.7812C125.656 33.7604 125 34.8229 124.438 35.9688C123.896 37.1146 123.458 38.3333 123.125 39.625C122.812 40.8958 122.656 42.1771 122.656 43.4688C122.656 44.5104 122.771 45.3958 123 46.125C123.229 46.8542 123.552 47.4479 123.969 47.9062C124.385 48.3646 124.885 48.6979 125.469 48.9062C126.052 49.0938 126.708 49.1875 127.438 49.1875C128.875 49.1875 130.271 48.8646 131.625 48.2188C132.979 47.5729 134.26 46.7396 135.469 45.7188C136.698 44.6771 137.823 43.5208 138.844 42.25C139.885 40.9792 140.802 39.7292 141.594 38.5L142.75 39.375C141.625 41.2708 140.427 42.9375 139.156 44.375C137.885 45.7917 136.583 46.9792 135.25 47.9375C133.917 48.8958 132.562 49.6146 131.188 50.0938C129.812 50.5729 128.469 50.8125 127.156 50.8125C126.115 50.8125 125.115 50.6562 124.156 50.3438C123.219 50.0312 122.385 49.5625 121.656 48.9375C120.948 48.2917 120.375 47.4688 119.938 46.4688C119.521 45.4688 119.312 44.2812 119.312 42.9062C119.312 41.2812 119.542 39.75 120 38.3125C120.479 36.8542 121.104 35.5104 121.875 34.2812C122.667 33.0521 123.573 31.9479 124.594 30.9688C125.615 29.9688 126.677 29.125 127.781 28.4375C128.906 27.75 130.031 27.2292 131.156 26.875C132.302 26.5 133.375 26.3125 134.375 26.3125C135.396 26.3125 136.229 26.4583 136.875 26.75C137.521 27.0208 138.031 27.3542 138.406 27.75C138.781 28.1458 139.031 28.5625 139.156 29C139.302 29.4375 139.375 29.8125 139.375 30.125C139.375 30.625 139.302 31.1562 139.156 31.7188C139.01 32.2812 138.802 32.8021 138.531 33.2812C138.281 33.7396 137.958 34.125 137.562 34.4375C137.188 34.75 136.771 34.9062 136.312 34.9062C135.854 34.9062 135.458 34.7604 135.125 34.4688C134.792 34.1562 134.625 33.7708 134.625 33.3125C134.625 33.2917 134.635 33.1667 134.656 32.9375C134.698 32.7083 134.802 32.4688 134.969 32.2188C135.135 31.9479 135.385 31.7083 135.719 31.5C136.073 31.2917 136.562 31.1875 137.188 31.1875H137.562ZM157.75 41.6562C157.833 41.6771 157.917 41.6875 158 41.6875C158.083 41.6875 158.177 41.6875 158.281 41.6875C158.865 41.6875 159.396 41.6354 159.875 41.5312C160.354 41.4062 160.792 41.2188 161.188 40.9688C161.604 40.7188 162 40.3958 162.375 40C162.75 39.5833 163.115 39.0833 163.469 38.5L164.594 39.375C163.594 40.7917 162.562 41.7812 161.5 42.3438C160.438 42.9062 159.312 43.1875 158.125 43.1875C157.688 43.1875 157.302 43.1458 156.969 43.0625C156.073 44.5625 155.115 45.8438 154.094 46.9062C153.073 47.9479 152.031 48.8021 150.969 49.4688C149.906 50.1354 148.854 50.6146 147.812 50.9062C146.771 51.2188 145.802 51.375 144.906 51.375C143.99 51.375 143.135 51.2083 142.344 50.875C141.573 50.5625 140.906 50.1042 140.344 49.5C139.781 48.8958 139.344 48.1771 139.031 47.3438C138.719 46.5104 138.562 45.5729 138.562 44.5312C138.562 43.4896 138.729 42.4271 139.062 41.3438C139.396 40.2604 139.844 39.1875 140.406 38.125C140.99 37.0625 141.667 36.0417 142.438 35.0625C143.208 34.0625 144.042 33.1354 144.938 32.2812C145.833 31.4271 146.76 30.6562 147.719 29.9688C148.677 29.2812 149.635 28.7188 150.594 28.2812L151.594 29.5938C150.49 30.3854 149.365 31.3854 148.219 32.5938C147.094 33.8021 146.062 35.125 145.125 36.5625C144.208 38 143.448 39.5 142.844 41.0625C142.26 42.6042 141.969 44.1042 141.969 45.5625C141.969 46.875 142.26 47.8958 142.844 48.625C143.427 49.3333 144.312 49.6875 145.5 49.6875C146.417 49.6875 147.323 49.5 148.219 49.125C149.115 48.75 149.99 48.2396 150.844 47.5938C151.698 46.9479 152.521 46.1875 153.312 45.3125C154.104 44.4167 154.854 43.4688 155.562 42.4688C154.958 42.1146 154.427 41.6458 153.969 41.0625C153.51 40.4583 153.125 39.7812 152.812 39.0312C152.5 38.2604 152.26 37.4375 152.094 36.5625C151.948 35.6875 151.875 34.7917 151.875 33.875C151.875 32.9583 151.99 32.0938 152.219 31.2812C152.448 30.4688 152.76 29.7604 153.156 29.1562C153.573 28.5312 154.052 28.0417 154.594 27.6875C155.135 27.3333 155.729 27.1562 156.375 27.1562C156.958 27.1562 157.479 27.3125 157.938 27.625C158.396 27.9167 158.781 28.3333 159.094 28.875C159.406 29.3958 159.646 30.0208 159.812 30.75C159.979 31.4792 160.062 32.2604 160.062 33.0938C160.062 33.7188 160.01 34.4062 159.906 35.1562C159.802 35.9062 159.646 36.6667 159.438 37.4375C159.25 38.1875 159.01 38.9375 158.719 39.6875C158.448 40.4167 158.125 41.0729 157.75 41.6562ZM153.5 33.875C153.5 34.4792 153.552 35.1354 153.656 35.8438C153.76 36.5521 153.927 37.2396 154.156 37.9062C154.385 38.5729 154.677 39.1979 155.031 39.7812C155.385 40.3438 155.823 40.7917 156.344 41.125C156.719 40.3958 157.031 39.6562 157.281 38.9062C157.552 38.1354 157.771 37.3958 157.938 36.6875C158.125 35.9792 158.25 35.3229 158.312 34.7188C158.396 34.0938 158.438 33.5521 158.438 33.0938C158.438 32.4688 158.385 31.8958 158.281 31.375C158.177 30.8542 158.031 30.4062 157.844 30.0312C157.677 29.6354 157.458 29.3333 157.188 29.125C156.938 28.8958 156.656 28.7812 156.344 28.7812C155.927 28.7812 155.542 28.9271 155.188 29.2188C154.833 29.4896 154.531 29.8646 154.281 30.3438C154.031 30.8021 153.833 31.3438 153.688 31.9688C153.562 32.5729 153.5 33.2083 153.5 33.875ZM188 33.1562C188.604 32.4479 189.229 31.7917 189.875 31.1875C190.521 30.5833 191.167 30.0625 191.812 29.625C192.458 29.1875 193.094 28.8542 193.719 28.625C194.365 28.375 194.979 28.25 195.562 28.25C196.021 28.25 196.469 28.3333 196.906 28.5C197.365 28.6458 197.771 28.8854 198.125 29.2188C198.479 29.5312 198.76 29.9375 198.969 30.4375C199.177 30.9375 199.281 31.5312 199.281 32.2188C199.281 33.2188 199.146 34.2083 198.875 35.1875C198.604 36.1458 198.26 37.0833 197.844 38C197.427 38.9167 196.979 39.8021 196.5 40.6562C196.042 41.5104 195.604 42.3333 195.188 43.125C194.771 43.8958 194.427 44.6354 194.156 45.3438C193.885 46.0312 193.75 46.6667 193.75 47.25C193.75 47.7083 193.865 48.0417 194.094 48.25C194.344 48.4375 194.604 48.5312 194.875 48.5312C195.417 48.5312 196.052 48.2188 196.781 47.5938C197.531 46.9688 198.312 46.1667 199.125 45.1875C199.938 44.2083 200.75 43.1354 201.562 41.9688C202.396 40.7812 203.188 39.625 203.938 38.5L205.062 39.375C204.792 39.8125 204.438 40.3958 204 41.125C203.583 41.8333 203.094 42.6042 202.531 43.4375C201.969 44.25 201.354 45.0833 200.688 45.9375C200.021 46.7708 199.312 47.5312 198.562 48.2188C197.833 48.8854 197.073 49.4375 196.281 49.875C195.49 50.2917 194.698 50.5 193.906 50.5C193.469 50.5 193.042 50.4375 192.625 50.3125C192.229 50.1875 191.875 49.9896 191.562 49.7188C191.25 49.4271 191 49.0521 190.812 48.5938C190.625 48.1354 190.531 47.5729 190.531 46.9062C190.531 45.9896 190.688 45.0938 191 44.2188C191.312 43.3438 191.708 42.4792 192.188 41.625C192.667 40.7708 193.177 39.9271 193.719 39.0938C194.281 38.2396 194.802 37.3958 195.281 36.5625C195.76 35.7292 196.156 34.8958 196.469 34.0625C196.781 33.2083 196.938 32.3438 196.938 31.4688C196.938 31.0312 196.854 30.6875 196.688 30.4375C196.521 30.1667 196.208 30.0312 195.75 30.0312C195.021 30.0312 194.25 30.3333 193.438 30.9375C192.625 31.5208 191.781 32.3125 190.906 33.3125C190.031 34.3125 189.135 35.4792 188.219 36.8125C187.302 38.125 186.385 39.5208 185.469 41C184.573 42.4583 183.677 43.9479 182.781 45.4688C181.906 46.9688 181.062 48.4167 180.25 49.8125L177.625 48.4375C178.729 46.1667 179.76 44.1354 180.719 42.3438C181.698 40.5521 182.552 38.9375 183.281 37.5C184.01 36.0417 184.583 34.7188 185 33.5312C185.417 32.3229 185.625 31.1875 185.625 30.125C185.625 29.9167 185.604 29.7083 185.562 29.5C185.521 29.2708 185.438 29.0729 185.312 28.9062C185.188 28.7396 185.021 28.6042 184.812 28.5C184.625 28.375 184.375 28.3125 184.062 28.3125C183.354 28.3125 182.635 28.6458 181.906 29.3125C181.177 29.9583 180.406 30.8542 179.594 32C178.781 33.125 177.906 34.4479 176.969 35.9688C176.052 37.4688 175.052 39.0625 173.969 40.75C172.906 42.4375 171.75 44.1771 170.5 45.9688C169.25 47.7396 167.885 49.4583 166.406 51.125L164.25 49.6875C164.917 48.6875 165.615 47.6354 166.344 46.5312C167.094 45.4062 167.823 44.2708 168.531 43.125C169.26 41.9792 169.948 40.8438 170.594 39.7188C171.26 38.5729 171.844 37.4896 172.344 36.4688C172.844 35.4479 173.24 34.5104 173.531 33.6562C173.823 32.8021 173.969 32.0729 173.969 31.4688C173.969 30.7604 173.792 30.25 173.438 29.9375C173.083 29.625 172.625 29.4688 172.062 29.4688C171.396 29.4688 170.74 29.7083 170.094 30.1875C169.469 30.6667 168.802 31.3438 168.094 32.2188C167.406 33.0938 166.656 34.1458 165.844 35.375C165.052 36.5833 164.146 37.9167 163.125 39.375L162 38.5C163.104 36.75 164.094 35.2083 164.969 33.875C165.865 32.5417 166.708 31.4271 167.5 30.5312C168.292 29.6354 169.073 28.9583 169.844 28.5C170.635 28.0417 171.49 27.8125 172.406 27.8125C172.677 27.8125 173.021 27.8646 173.438 27.9688C173.875 28.0729 174.302 28.2604 174.719 28.5312C175.135 28.8021 175.5 29.1771 175.812 29.6562C176.146 30.1354 176.344 30.75 176.406 31.5C177.573 30 178.792 28.8021 180.062 27.9062C181.333 27.0104 182.531 26.5625 183.656 26.5625C184.469 26.5625 185.156 26.7292 185.719 27.0625C186.281 27.375 186.729 27.7917 187.062 28.3125C187.417 28.8333 187.667 29.4271 187.812 30.0938C187.979 30.7396 188.062 31.3958 188.062 32.0625C188.062 32.2292 188.052 32.4062 188.031 32.5938C188.031 32.7812 188.021 32.9688 188 33.1562ZM204.812 43.0312C204.771 43.2812 204.74 43.5312 204.719 43.7812C204.698 44.0312 204.688 44.2812 204.688 44.5312C204.688 45.2812 204.792 46 205 46.6875C205.229 47.3542 205.552 47.9479 205.969 48.4688C206.406 48.9688 206.938 49.3646 207.562 49.6562C208.208 49.9479 208.938 50.0938 209.75 50.0938C212.479 50.0938 215.115 49.1667 217.656 47.3125C220.198 45.4583 222.729 42.5208 225.25 38.5L226.312 39.4375C224.938 41.7292 223.542 43.6667 222.125 45.25C220.708 46.8125 219.292 48.0833 217.875 49.0625C216.479 50.0417 215.104 50.75 213.75 51.1875C212.396 51.625 211.104 51.8438 209.875 51.8438C208.979 51.8438 208.031 51.7188 207.031 51.4688C206.031 51.2188 205.104 50.8021 204.25 50.2188C203.417 49.6354 202.729 48.8542 202.188 47.875C201.625 46.8958 201.344 45.6771 201.344 44.2188C201.344 42.6562 201.615 41.1562 202.156 39.7188C202.677 38.2604 203.365 36.9062 204.219 35.6562C205.073 34.4062 206.052 33.2708 207.156 32.25C208.26 31.2083 209.375 30.3229 210.5 29.5938C211.646 28.8646 212.76 28.3021 213.844 27.9062C214.927 27.4896 215.885 27.2812 216.719 27.2812C217.26 27.2812 217.812 27.3646 218.375 27.5312C218.938 27.6979 219.438 27.9583 219.875 28.3125C220.333 28.6667 220.698 29.1354 220.969 29.7188C221.26 30.3021 221.406 31 221.406 31.8125C221.406 32.9167 221.146 33.9583 220.625 34.9375C220.125 35.8958 219.448 36.7917 218.594 37.625C217.74 38.4375 216.75 39.1771 215.625 39.8438C214.5 40.4896 213.323 41.0417 212.094 41.5C210.865 41.9583 209.625 42.3229 208.375 42.5938C207.125 42.8646 205.938 43.0104 204.812 43.0312ZM205.062 41.6875C206.458 41.5417 207.771 41.25 209 40.8125C210.229 40.375 211.354 39.8438 212.375 39.2188C213.396 38.5729 214.302 37.875 215.094 37.125C215.906 36.375 216.583 35.6146 217.125 34.8438C217.667 34.0729 218.083 33.3333 218.375 32.625C218.667 31.9167 218.812 31.2812 218.812 30.7188C218.812 30.1562 218.656 29.7083 218.344 29.375C218.052 29.0417 217.698 28.875 217.281 28.875C216.365 28.875 215.333 29.2083 214.188 29.875C213.042 30.5208 211.896 31.4271 210.75 32.5938C209.604 33.7396 208.521 35.0938 207.5 36.6562C206.5 38.2188 205.688 39.8958 205.062 41.6875ZM247.344 24.375C247.552 24.0208 247.917 23.4062 248.438 22.5312C248.979 21.6562 249.604 20.6875 250.312 19.625C251.042 18.5625 251.823 17.5 252.656 16.4375C253.51 15.3542 254.344 14.4375 255.156 13.6875L256.562 14.5312C255.667 16.0104 254.75 17.5833 253.812 19.25C252.875 20.8958 251.948 22.6042 251.031 24.375H261.219L260.594 26H250.188C249.25 27.875 248.365 29.7396 247.531 31.5938C246.719 33.4479 246 35.2188 245.375 36.9062C244.75 38.5938 244.26 40.1771 243.906 41.6562C243.552 43.1146 243.375 44.3854 243.375 45.4688C243.375 46.8229 243.688 47.8021 244.312 48.4062C244.938 48.9896 245.708 49.2812 246.625 49.2812C247.438 49.2812 248.271 49.0417 249.125 48.5625C249.979 48.0625 250.812 47.4375 251.625 46.6875C252.458 45.9375 253.24 45.1146 253.969 44.2188C254.719 43.3229 255.375 42.4792 255.938 41.6875C256.521 40.8958 257 40.2083 257.375 39.625C257.75 39.0208 257.979 38.6458 258.062 38.5L259.219 39.375C258.49 40.5833 257.667 41.8646 256.75 43.2188C255.833 44.5729 254.812 45.8333 253.688 47C252.583 48.1458 251.375 49.1042 250.062 49.875C248.75 50.625 247.333 51 245.812 51C244.875 51 244.052 50.8333 243.344 50.5C242.656 50.1667 242.073 49.7083 241.594 49.125C241.115 48.5208 240.76 47.8125 240.531 47C240.281 46.1875 240.156 45.3021 240.156 44.3438C240.156 43.7188 240.26 42.8333 240.469 41.6875C240.656 40.5417 240.99 39.1875 241.469 37.625C241.948 36.0417 242.583 34.2708 243.375 32.3125C244.188 30.3542 245.208 28.25 246.438 26H241.25L241.875 24.375H247.344ZM274.188 41.6562C274.271 41.6771 274.354 41.6875 274.438 41.6875C274.521 41.6875 274.615 41.6875 274.719 41.6875C275.302 41.6875 275.833 41.6354 276.312 41.5312C276.792 41.4062 277.229 41.2188 277.625 40.9688C278.042 40.7188 278.438 40.3958 278.812 40C279.188 39.5833 279.552 39.0833 279.906 38.5L281.031 39.375C280.031 40.7917 279 41.7812 277.938 42.3438C276.875 42.9062 275.75 43.1875 274.562 43.1875C274.125 43.1875 273.74 43.1458 273.406 43.0625C272.51 44.5625 271.552 45.8438 270.531 46.9062C269.51 47.9479 268.469 48.8021 267.406 49.4688C266.344 50.1354 265.292 50.6146 264.25 50.9062C263.208 51.2188 262.24 51.375 261.344 51.375C260.427 51.375 259.573 51.2083 258.781 50.875C258.01 50.5625 257.344 50.1042 256.781 49.5C256.219 48.8958 255.781 48.1771 255.469 47.3438C255.156 46.5104 255 45.5729 255 44.5312C255 43.4896 255.167 42.4271 255.5 41.3438C255.833 40.2604 256.281 39.1875 256.844 38.125C257.427 37.0625 258.104 36.0417 258.875 35.0625C259.646 34.0625 260.479 33.1354 261.375 32.2812C262.271 31.4271 263.198 30.6562 264.156 29.9688C265.115 29.2812 266.073 28.7188 267.031 28.2812L268.031 29.5938C266.927 30.3854 265.802 31.3854 264.656 32.5938C263.531 33.8021 262.5 35.125 261.562 36.5625C260.646 38 259.885 39.5 259.281 41.0625C258.698 42.6042 258.406 44.1042 258.406 45.5625C258.406 46.875 258.698 47.8958 259.281 48.625C259.865 49.3333 260.75 49.6875 261.938 49.6875C262.854 49.6875 263.76 49.5 264.656 49.125C265.552 48.75 266.427 48.2396 267.281 47.5938C268.135 46.9479 268.958 46.1875 269.75 45.3125C270.542 44.4167 271.292 43.4688 272 42.4688C271.396 42.1146 270.865 41.6458 270.406 41.0625C269.948 40.4583 269.562 39.7812 269.25 39.0312C268.938 38.2604 268.698 37.4375 268.531 36.5625C268.385 35.6875 268.312 34.7917 268.312 33.875C268.312 32.9583 268.427 32.0938 268.656 31.2812C268.885 30.4688 269.198 29.7604 269.594 29.1562C270.01 28.5312 270.49 28.0417 271.031 27.6875C271.573 27.3333 272.167 27.1562 272.812 27.1562C273.396 27.1562 273.917 27.3125 274.375 27.625C274.833 27.9167 275.219 28.3333 275.531 28.875C275.844 29.3958 276.083 30.0208 276.25 30.75C276.417 31.4792 276.5 32.2604 276.5 33.0938C276.5 33.7188 276.448 34.4062 276.344 35.1562C276.24 35.9062 276.083 36.6667 275.875 37.4375C275.688 38.1875 275.448 38.9375 275.156 39.6875C274.885 40.4167 274.562 41.0729 274.188 41.6562ZM269.938 33.875C269.938 34.4792 269.99 35.1354 270.094 35.8438C270.198 36.5521 270.365 37.2396 270.594 37.9062C270.823 38.5729 271.115 39.1979 271.469 39.7812C271.823 40.3438 272.26 40.7917 272.781 41.125C273.156 40.3958 273.469 39.6562 273.719 38.9062C273.99 38.1354 274.208 37.3958 274.375 36.6875C274.562 35.9792 274.688 35.3229 274.75 34.7188C274.833 34.0938 274.875 33.5521 274.875 33.0938C274.875 32.4688 274.823 31.8958 274.719 31.375C274.615 30.8542 274.469 30.4062 274.281 30.0312C274.115 29.6354 273.896 29.3333 273.625 29.125C273.375 28.8958 273.094 28.7812 272.781 28.7812C272.365 28.7812 271.979 28.9271 271.625 29.2188C271.271 29.4896 270.969 29.8646 270.719 30.3438C270.469 30.8021 270.271 31.3438 270.125 31.9688C270 32.5729 269.938 33.2083 269.938 33.875ZM385.469 9.75C385.51 9.5 385.542 9.26042 385.562 9.03125C385.604 8.78125 385.625 8.54167 385.625 8.3125C385.625 7.4375 385.448 6.60417 385.094 5.8125C384.76 5 384.26 4.29167 383.594 3.6875C382.948 3.0625 382.156 2.57292 381.219 2.21875C380.281 1.84375 379.229 1.65625 378.062 1.65625C376.833 1.65625 375.531 1.92708 374.156 2.46875C372.781 2.98958 371.406 3.91667 370.031 5.25C368.698 6.54167 367.323 8.20833 365.906 10.25C364.51 12.2708 363.115 14.5104 361.719 16.9688C360.344 19.4062 358.99 21.9792 357.656 24.6875C356.344 27.3958 355.094 30.0625 353.906 32.6875C352.719 35.3125 351.625 37.8229 350.625 40.2188C349.625 42.6146 348.76 44.7292 348.031 46.5625C347.302 48.375 346.729 49.8333 346.312 50.9375C345.917 52.0417 345.708 52.6146 345.688 52.6562L344.094 52.25C343.844 50.6458 343.615 49.1979 343.406 47.9062C343.219 46.6146 343.052 45.375 342.906 44.1875C342.781 43 342.688 41.8229 342.625 40.6562C342.562 39.4896 342.531 38.2396 342.531 36.9062C342.531 35.8229 342.573 34.5833 342.656 33.1875C342.76 31.7917 342.896 30.3125 343.062 28.75C343.25 27.1875 343.458 25.5833 343.688 23.9375C343.938 22.2917 344.198 20.6771 344.469 19.0938C344.76 17.5104 345.062 16.0104 345.375 14.5938C345.688 13.1562 346.01 11.8646 346.344 10.7188C344.573 13.3646 342.948 16.0312 341.469 18.7188C340.01 21.4062 338.625 24.0417 337.312 26.625C336 29.2083 334.729 31.7188 333.5 34.1562C332.271 36.5729 331.01 38.8438 329.719 40.9688C328.427 43.0938 327.062 45.0417 325.625 46.8125C324.188 48.5833 322.604 50.0938 320.875 51.3438C319.167 52.6146 317.271 53.5938 315.188 54.2812C313.104 54.9896 310.771 55.3438 308.188 55.3438C306.229 55.3438 304.375 55.0729 302.625 54.5312C300.896 53.9896 299.375 53.2292 298.062 52.25C296.75 51.2708 295.719 50.0833 294.969 48.6875C294.198 47.2917 293.812 45.75 293.812 44.0625C293.812 42.1458 294.229 40.4375 295.062 38.9375C295.875 37.4167 296.958 36.1458 298.312 35.125C299.667 34.0833 301.229 33.2917 303 32.75C304.771 32.2083 306.604 31.9375 308.5 31.9375C309.583 31.9375 310.677 32.0104 311.781 32.1562C312.906 32.3021 314 32.5417 315.062 32.875C316.146 33.2083 317.188 33.6562 318.188 34.2188C319.188 34.7604 320.115 35.4375 320.969 36.25L319.75 37.3438C319.75 37.3438 319.521 37.1562 319.062 36.7812C318.625 36.3854 317.958 35.9583 317.062 35.5C316.188 35.0417 315.073 34.625 313.719 34.25C312.365 33.8542 310.781 33.6562 308.969 33.6562C307.51 33.6562 306.094 33.8646 304.719 34.2812C303.344 34.6979 302.115 35.3125 301.031 36.125C299.969 36.9375 299.115 37.9375 298.469 39.125C297.823 40.3125 297.5 41.6875 297.5 43.25C297.5 44.8542 297.844 46.2917 298.531 47.5625C299.219 48.8125 300.135 49.8646 301.281 50.7188C302.427 51.5938 303.729 52.25 305.188 52.6875C306.646 53.1458 308.146 53.375 309.688 53.375C311.979 53.375 314.052 52.9896 315.906 52.2188C317.781 51.4688 319.51 50.4062 321.094 49.0312C322.698 47.6562 324.188 46.0104 325.562 44.0938C326.958 42.1771 328.312 40.0625 329.625 37.75C330.938 35.4375 332.26 32.9688 333.594 30.3438C334.927 27.6979 336.333 24.9688 337.812 22.1562C339.292 19.3438 340.885 16.4792 342.594 13.5625C344.302 10.6458 346.188 7.75 348.25 4.875L349.688 5.625C349 7.64583 348.448 9.78125 348.031 12.0312C347.615 14.2604 347.292 16.5625 347.062 18.9375C346.854 21.2917 346.708 23.6771 346.625 26.0938C346.562 28.5104 346.521 30.8958 346.5 33.25C346.479 35.6042 346.458 37.9062 346.438 40.1562C346.438 42.3854 346.385 44.5 346.281 46.5C346.99 44.6875 347.844 42.5729 348.844 40.1562C349.844 37.7396 350.948 35.1875 352.156 32.5C353.365 29.8125 354.646 27.0833 356 24.3125C357.375 21.5208 358.771 18.8542 360.188 16.3125C361.625 13.7708 363.073 11.4479 364.531 9.34375C366.01 7.21875 367.458 5.46875 368.875 4.09375C370.438 2.59375 372 1.54167 373.562 0.9375C375.146 0.3125 376.656 0 378.094 0C379.51 0 380.781 0.239583 381.906 0.71875C383.052 1.17708 384.021 1.79167 384.812 2.5625C385.604 3.3125 386.208 4.1875 386.625 5.1875C387.042 6.1875 387.25 7.21875 387.25 8.28125C387.25 8.86458 387.188 9.46875 387.062 10.0938L385.469 9.75ZM373.531 22.4375C373.531 22.8542 373.427 23.2917 373.219 23.75C373.01 24.1875 372.74 24.5833 372.406 24.9375C372.094 25.2917 371.74 25.5833 371.344 25.8125C370.948 26.0417 370.552 26.1562 370.156 26.1562C369.802 26.1562 369.531 26.0312 369.344 25.7812C369.156 25.5104 369.062 25.1875 369.062 24.8125C369.062 24.4792 369.125 24.0833 369.25 23.625C369.375 23.1667 369.562 22.7396 369.812 22.3438C370.062 21.9271 370.365 21.5729 370.719 21.2812C371.073 20.9896 371.479 20.8438 371.938 20.8438C372.375 20.8438 372.75 21.0104 373.062 21.3438C373.375 21.6771 373.531 22.0417 373.531 22.4375ZM367.688 29.375C367.417 29.9167 367.031 30.6354 366.531 31.5312C366.052 32.4062 365.531 33.375 364.969 34.4375C364.406 35.4792 363.833 36.5833 363.25 37.75C362.667 38.8958 362.135 40.0208 361.656 41.125C361.198 42.2083 360.823 43.2292 360.531 44.1875C360.24 45.1458 360.094 45.9583 360.094 46.625C360.094 47.2292 360.219 47.6458 360.469 47.875C360.719 48.0833 361.073 48.1875 361.531 48.1875C362.385 48.1875 363.219 47.9062 364.031 47.3438C364.844 46.7812 365.646 46.0521 366.438 45.1562C367.25 44.2396 368.042 43.1979 368.812 42.0312C369.583 40.8646 370.354 39.6875 371.125 38.5L372.25 39.375C371.646 40.4583 370.958 41.6146 370.188 42.8438C369.438 44.0729 368.594 45.2188 367.656 46.2812C366.719 47.3229 365.688 48.1875 364.562 48.875C363.438 49.5625 362.208 49.9062 360.875 49.9062C359.625 49.9062 358.667 49.5312 358 48.7812C357.333 48.0312 357 47.0625 357 45.875C357 44.4792 357.323 43.0208 357.969 41.5C358.615 39.9792 359.417 38.4792 360.375 37C361.354 35.5 362.406 34.0625 363.531 32.6875C364.677 31.3125 365.729 30.0625 366.688 28.9375L367.688 29.375ZM381.531 49.0938C380.448 49.8229 379.323 50.4062 378.156 50.8438C377.01 51.3021 375.906 51.5312 374.844 51.5312C374.052 51.5312 373.26 51.4167 372.469 51.1875C371.677 50.9583 370.958 50.5833 370.312 50.0625C369.667 49.5208 369.146 48.8125 368.75 47.9375C368.333 47.0625 368.125 45.9792 368.125 44.6875C368.125 43.125 368.406 41.625 368.969 40.1875C369.531 38.75 370.281 37.4167 371.219 36.1875C372.156 34.9375 373.229 33.8021 374.438 32.7812C375.646 31.7604 376.885 30.8958 378.156 30.1875C379.448 29.4583 380.729 28.8958 382 28.5C383.271 28.1042 384.427 27.9062 385.469 27.9062C386.49 27.9062 387.354 28.0208 388.062 28.25C388.792 28.4583 389.406 28.7292 389.906 29.0625C390.406 29.375 390.802 29.7188 391.094 30.0938C391.385 30.4688 391.625 30.8229 391.812 31.1562L393.5 28.9375L394.531 29.625C394.531 29.6458 394.365 29.9792 394.031 30.625C393.698 31.25 393.26 32.0938 392.719 33.1562C392.177 34.2188 391.542 35.4688 390.812 36.9062C390.104 38.3229 389.354 39.8333 388.562 41.4375C387.792 43.0417 387 44.6979 386.188 46.4062C385.396 48.1146 384.635 49.7917 383.906 51.4375C385.802 50.3542 387.469 49.3125 388.906 48.3125C390.344 47.3125 391.625 46.3021 392.75 45.2812C393.896 44.2604 394.927 43.1979 395.844 42.0938C396.76 40.9896 397.646 39.7917 398.5 38.5L399.656 39.375C398.823 40.7292 397.917 41.9896 396.938 43.1562C395.979 44.3021 394.844 45.4479 393.531 46.5938C392.24 47.7188 390.719 48.8854 388.969 50.0938C387.24 51.2812 385.177 52.5938 382.781 54.0312C380.802 58.8854 378.896 62.8958 377.062 66.0625C375.229 69.25 373.49 71.7708 371.844 73.625C370.219 75.4792 368.708 76.7812 367.312 77.5312C365.896 78.2812 364.625 78.6562 363.5 78.6562C363.042 78.6562 362.552 78.5938 362.031 78.4688C361.49 78.3646 360.99 78.1458 360.531 77.8125C360.073 77.4792 359.698 77.0208 359.406 76.4375C359.094 75.8542 358.938 75.1042 358.938 74.1875C358.938 72.4375 359.406 70.7083 360.344 69C361.26 67.2917 362.604 65.5938 364.375 63.9062C366.125 62.2188 368.271 60.5417 370.812 58.875C373.375 57.2083 376.271 55.5312 379.5 53.8438C379.896 52.9479 380.26 52.0938 380.594 51.2812C380.927 50.4896 381.24 49.7604 381.531 49.0938ZM383.156 45.6562C383.719 44.5938 384.271 43.5521 384.812 42.5312C385.375 41.4896 385.948 40.4583 386.531 39.4375C387.135 38.3958 387.771 37.3333 388.438 36.25C389.125 35.1667 389.885 34.0417 390.719 32.875C390.677 32.5625 390.573 32.2396 390.406 31.9062C390.24 31.5729 390.01 31.2708 389.719 31C389.427 30.7083 389.052 30.4688 388.594 30.2812C388.135 30.0938 387.594 30 386.969 30C386.26 30 385.448 30.0938 384.531 30.2812C383.635 30.4688 382.688 30.7917 381.688 31.25C380.688 31.7083 379.667 32.3229 378.625 33.0938C377.604 33.8646 376.604 34.8333 375.625 36C374.188 37.7083 373.083 39.4167 372.312 41.125C371.542 42.8125 371.156 44.3542 371.156 45.75C371.156 47.1042 371.5 48.1354 372.188 48.8438C372.875 49.5312 373.812 49.875 375 49.875C376.25 49.875 377.573 49.4896 378.969 48.7188C380.385 47.9479 381.781 46.9271 383.156 45.6562ZM363.5 77.0625C364.292 77.0625 365.115 76.7708 365.969 76.1875C366.823 75.6042 367.688 74.8021 368.562 73.7812C369.438 72.7812 370.302 71.6146 371.156 70.2812C372.01 68.9479 372.854 67.5208 373.688 66C374.521 64.5 375.312 62.9583 376.062 61.375C376.833 59.7917 377.562 58.2396 378.25 56.7188C375.146 58.3438 372.49 60.0312 370.281 61.7812C368.094 63.5521 366.302 65.2396 364.906 66.8438C363.51 68.4479 362.5 69.8958 361.875 71.1875C361.229 72.4792 360.906 73.4688 360.906 74.1562C360.906 75.0104 361.094 75.7083 361.469 76.25C361.844 76.7917 362.521 77.0625 363.5 77.0625ZM401.25 37.9375C402.354 36.4375 403.5 35.0625 404.688 33.8125C405.875 32.5417 407.073 31.4479 408.281 30.5312C409.49 29.6146 410.677 28.9062 411.844 28.4062C413.031 27.8854 414.177 27.625 415.281 27.625C416.031 27.625 416.646 27.7396 417.125 27.9688C417.625 28.1979 418.01 28.5 418.281 28.875C418.573 29.2292 418.771 29.625 418.875 30.0625C419 30.5 419.062 30.9375 419.062 31.375C419.062 32.125 418.906 32.9375 418.594 33.8125C418.281 34.6667 417.885 35.5625 417.406 36.5C416.948 37.4375 416.448 38.3958 415.906 39.375C415.365 40.3542 414.854 41.3125 414.375 42.25C413.917 43.1875 413.531 44.1042 413.219 45C412.906 45.875 412.75 46.6979 412.75 47.4688C412.75 47.9479 412.854 48.3958 413.062 48.8125C413.292 49.2083 413.688 49.4062 414.25 49.4062C414.917 49.4062 415.656 49.0729 416.469 48.4062C417.281 47.7188 418.104 46.8542 418.938 45.8125C419.792 44.75 420.635 43.5729 421.469 42.2812C422.323 40.9896 423.115 39.7292 423.844 38.5L424.969 39.375C424.74 39.6875 424.427 40.1979 424.031 40.9062C423.635 41.5938 423.167 42.375 422.625 43.25C422.104 44.1042 421.51 44.9896 420.844 45.9062C420.198 46.8229 419.5 47.6667 418.75 48.4375C418.021 49.1875 417.25 49.8021 416.438 50.2812C415.625 50.7812 414.802 51.0312 413.969 51.0312C413.427 51.0312 412.885 50.9688 412.344 50.8438C411.802 50.7188 411.312 50.4896 410.875 50.1562C410.438 49.8229 410.083 49.375 409.812 48.8125C409.542 48.2292 409.406 47.5 409.406 46.625C409.406 45.6042 409.573 44.5729 409.906 43.5312C410.26 42.4688 410.688 41.4271 411.188 40.4062C411.708 39.3646 412.271 38.3646 412.875 37.4062C413.479 36.4271 414.031 35.5104 414.531 34.6562C415.052 33.8021 415.479 33.0312 415.812 32.3438C416.167 31.6354 416.344 31.0417 416.344 30.5625C416.344 29.7083 415.927 29.2812 415.094 29.2812C413.906 29.2812 412.646 29.6771 411.312 30.4688C410 31.2396 408.677 32.25 407.344 33.5C406.01 34.75 404.698 36.1562 403.406 37.7188C402.115 39.2604 400.906 40.8021 399.781 42.3438L395.031 51.2812L392.188 50.1562C394.833 44.3854 397.375 38.6875 399.812 33.0625C402.271 27.4167 404.792 21.8438 407.375 16.3438C407.771 15.4896 408.229 14.5625 408.75 13.5625C409.292 12.5625 409.865 11.5625 410.469 10.5625C411.094 9.5625 411.76 8.60417 412.469 7.6875C413.177 6.77083 413.906 5.95833 414.656 5.25C415.406 4.54167 416.177 3.97917 416.969 3.5625C417.781 3.125 418.594 2.90625 419.406 2.90625C420.323 2.90625 421.031 3.16667 421.531 3.6875C422.052 4.1875 422.312 4.90625 422.312 5.84375C422.312 6.82292 422.052 7.9375 421.531 9.1875C421.01 10.4167 420.312 11.7188 419.438 13.0938C418.562 14.4688 417.542 15.8854 416.375 17.3438C415.229 18.8021 414.01 20.25 412.719 21.6875C411.448 23.125 410.156 24.5208 408.844 25.875C407.531 27.2083 406.271 28.4479 405.062 29.5938L401.25 37.9375ZM419.562 4.5625C418.625 4.5625 417.76 4.92708 416.969 5.65625C416.198 6.36458 415.354 7.54167 414.438 9.1875C413.521 10.8333 412.469 12.9792 411.281 15.625C410.094 18.2708 408.646 21.5208 406.938 25.375C409.229 23.1458 411.229 20.9896 412.938 18.9062C414.667 16.8021 416.104 14.8854 417.25 13.1562C418.396 11.4271 419.25 9.92708 419.812 8.65625C420.396 7.36458 420.688 6.40625 420.688 5.78125C420.688 5.40625 420.583 5.11458 420.375 4.90625C420.167 4.67708 419.896 4.5625 419.562 4.5625ZM428.719 24.375C428.927 24.0208 429.292 23.4062 429.812 22.5312C430.354 21.6562 430.979 20.6875 431.688 19.625C432.417 18.5625 433.198 17.5 434.031 16.4375C434.885 15.3542 435.719 14.4375 436.531 13.6875L437.938 14.5312C437.042 16.0104 436.125 17.5833 435.188 19.25C434.25 20.8958 433.323 22.6042 432.406 24.375H442.594L441.969 26H431.562C430.625 27.875 429.74 29.7396 428.906 31.5938C428.094 33.4479 427.375 35.2188 426.75 36.9062C426.125 38.5938 425.635 40.1771 425.281 41.6562C424.927 43.1146 424.75 44.3854 424.75 45.4688C424.75 46.8229 425.062 47.8021 425.688 48.4062C426.312 48.9896 427.083 49.2812 428 49.2812C428.812 49.2812 429.646 49.0417 430.5 48.5625C431.354 48.0625 432.188 47.4375 433 46.6875C433.833 45.9375 434.615 45.1146 435.344 44.2188C436.094 43.3229 436.75 42.4792 437.312 41.6875C437.896 40.8958 438.375 40.2083 438.75 39.625C439.125 39.0208 439.354 38.6458 439.438 38.5L440.594 39.375C439.865 40.5833 439.042 41.8646 438.125 43.2188C437.208 44.5729 436.188 45.8333 435.062 47C433.958 48.1458 432.75 49.1042 431.438 49.875C430.125 50.625 428.708 51 427.188 51C426.25 51 425.427 50.8333 424.719 50.5C424.031 50.1667 423.448 49.7083 422.969 49.125C422.49 48.5208 422.135 47.8125 421.906 47C421.656 46.1875 421.531 45.3021 421.531 44.3438C421.531 43.7188 421.635 42.8333 421.844 41.6875C422.031 40.5417 422.365 39.1875 422.844 37.625C423.323 36.0417 423.958 34.2708 424.75 32.3125C425.562 30.3542 426.583 28.25 427.812 26H422.625L423.25 24.375H428.719ZM537.844 60.9375C537.781 60.9792 537.5 61.125 537 61.375C536.5 61.625 535.844 61.8958 535.031 62.1875C534.219 62.4792 533.292 62.7396 532.25 62.9688C531.208 63.2188 530.125 63.3438 529 63.3438C527.167 63.3438 525.521 63.0208 524.062 62.375C522.604 61.7292 521.365 60.8125 520.344 59.625C519.344 58.4583 518.573 57.0417 518.031 55.375C517.49 53.7292 517.219 51.8958 517.219 49.875C517.219 47.9375 517.458 45.8125 517.938 43.5C518.417 41.1667 519.042 38.7708 519.812 36.3125C520.583 33.8542 521.448 31.3958 522.406 28.9375C523.385 26.4792 524.365 24.1458 525.344 21.9375C526.344 19.7083 527.292 17.6771 528.188 15.8438C529.083 13.9896 529.854 12.4479 530.5 11.2188C529.333 12.5521 528 14.0938 526.5 15.8438C525 17.5729 523.396 19.4792 521.688 21.5625C520 23.625 518.24 25.8333 516.406 28.1875C514.573 30.5208 512.719 32.9583 510.844 35.5C508.99 38.0208 507.146 40.6146 505.312 43.2812C503.479 45.9271 501.729 48.5938 500.062 51.2812L498.562 50.7812C498.875 47.3854 499.385 44.0208 500.094 40.6875C500.823 37.3333 501.635 34.1146 502.531 31.0312C503.448 27.9271 504.406 25.0208 505.406 22.3125C506.427 19.5833 507.396 17.1458 508.312 15C506.917 16.9167 505.521 19 504.125 21.25C502.75 23.4792 501.354 25.7812 499.938 28.1562C498.521 30.5104 497.062 32.8854 495.562 35.2812C494.062 37.6562 492.5 39.9479 490.875 42.1562C489.25 44.3438 487.531 46.3958 485.719 48.3125C483.927 50.2083 482.01 51.8542 479.969 53.25C477.948 54.6667 475.781 55.7812 473.469 56.5938C471.177 57.4062 468.719 57.8125 466.094 57.8125C464.073 57.8125 462.24 57.5104 460.594 56.9062C458.948 56.3021 457.531 55.4688 456.344 54.4062C455.177 53.3646 454.281 52.1354 453.656 50.7188C453.01 49.3021 452.688 47.7708 452.688 46.125C452.688 44.5208 452.948 43.0729 453.469 41.7812C453.969 40.4688 454.646 39.3125 455.5 38.3125C456.354 37.2917 457.344 36.4167 458.469 35.6875C459.615 34.9375 460.812 34.3229 462.062 33.8438C463.312 33.3646 464.573 33.0104 465.844 32.7812C467.135 32.5521 468.365 32.4375 469.531 32.4375C471.948 32.4375 474.26 32.7292 476.469 33.3125C478.677 33.875 480.802 34.8854 482.844 36.3438L481.75 37.5625C481.729 37.5417 481.458 37.3542 480.938 37C480.417 36.625 479.667 36.2188 478.688 35.7812C477.708 35.3438 476.49 34.9479 475.031 34.5938C473.594 34.2396 471.948 34.0625 470.094 34.0625C468.302 34.0625 466.562 34.3021 464.875 34.7812C463.208 35.2604 461.729 35.9896 460.438 36.9688C459.167 37.9271 458.146 39.1458 457.375 40.625C456.604 42.0833 456.219 43.8021 456.219 45.7812C456.219 47.1979 456.49 48.5104 457.031 49.7188C457.594 50.9271 458.365 51.9688 459.344 52.8438C460.323 53.7396 461.5 54.4375 462.875 54.9375C464.25 55.4375 465.771 55.6875 467.438 55.6875C469.938 55.6875 472.333 55.1562 474.625 54.0938C476.917 53.0312 479.125 51.5938 481.25 49.7812C483.375 47.9688 485.417 45.8542 487.375 43.4375C489.354 41.0208 491.25 38.4688 493.062 35.7812C494.896 33.0938 496.667 30.3333 498.375 27.5C500.083 24.6667 501.74 21.9375 503.344 19.3125C504.948 16.6667 506.51 14.1979 508.031 11.9062C509.552 9.59375 511.042 7.60417 512.5 5.9375L513.906 6.78125C512.99 9.57292 512.198 12.0312 511.531 14.1562C510.865 16.2604 510.281 18.1146 509.781 19.7188C509.302 21.3229 508.885 22.7083 508.531 23.875C508.198 25.0417 507.906 26.0833 507.656 27C507.406 27.9167 507.177 28.75 506.969 29.5C506.781 30.2292 506.583 30.9583 506.375 31.6875C506.188 32.4167 505.969 33.1875 505.719 34C505.469 34.8125 505.167 35.7604 504.812 36.8438C504.458 37.9062 504.042 39.1458 503.562 40.5625C503.083 41.9583 502.5 43.6146 501.812 45.5312C503.562 42.8854 505.354 40.2812 507.188 37.7188C509.042 35.1562 510.885 32.6771 512.719 30.2812C514.552 27.8854 516.344 25.5938 518.094 23.4062C519.865 21.2188 521.531 19.1875 523.094 17.3125C524.677 15.4375 526.125 13.7396 527.438 12.2188C528.771 10.6771 529.927 9.36458 530.906 8.28125C531.885 7.19792 532.646 6.35417 533.188 5.75C533.75 5.14583 534.042 4.83333 534.062 4.8125L535.375 5.78125C534.146 8.82292 532.927 11.875 531.719 14.9375C530.51 17.9792 529.344 20.9479 528.219 23.8438C527.115 26.7396 526.083 29.5312 525.125 32.2188C524.167 34.9062 523.333 37.4271 522.625 39.7812C521.917 42.1146 521.354 44.25 520.938 46.1875C520.542 48.1042 520.344 49.75 520.344 51.125C520.344 52.75 520.531 54.2188 520.906 55.5312C521.302 56.8438 521.865 57.9583 522.594 58.875C523.323 59.7917 524.219 60.4896 525.281 60.9688C526.365 61.4688 527.583 61.7188 528.938 61.7188C529.958 61.7188 530.948 61.6042 531.906 61.375C532.885 61.1458 533.75 60.8958 534.5 60.625C535.25 60.3542 535.854 60.1042 536.312 59.875C536.771 59.6458 537.01 59.5312 537.031 59.5312L537.844 60.9375ZM555.906 29.375C555.635 29.9167 555.25 30.625 554.75 31.5C554.271 32.375 553.75 33.3438 553.188 34.4062C552.625 35.4479 552.052 36.5417 551.469 37.6875C550.906 38.8333 550.385 39.9583 549.906 41.0625C549.448 42.1458 549.062 43.1771 548.75 44.1562C548.458 45.1146 548.312 45.9271 548.312 46.5938C548.312 47.2604 548.438 47.6979 548.688 47.9062C548.958 48.0938 549.302 48.1875 549.719 48.1875C550.323 48.1875 550.938 48.0104 551.562 47.6562C552.208 47.3021 552.833 46.8438 553.438 46.2812C554.062 45.7188 554.667 45.0833 555.25 44.375C555.833 43.6667 556.375 42.9583 556.875 42.25C557.396 41.5208 557.865 40.8333 558.281 40.1875C558.698 39.5208 559.052 38.9583 559.344 38.5L560.469 39.375C560.115 40.0417 559.698 40.7604 559.219 41.5312C558.74 42.3021 558.208 43.0833 557.625 43.875C557.062 44.6458 556.448 45.3958 555.781 46.125C555.115 46.8542 554.406 47.5 553.656 48.0625C552.927 48.625 552.156 49.0729 551.344 49.4062C550.531 49.7396 549.698 49.9062 548.844 49.9062C547.594 49.9062 546.677 49.5312 546.094 48.7812C545.51 48.0312 545.219 47.0625 545.219 45.875C545.219 45.7917 545.219 45.6146 545.219 45.3438C545.24 45.0521 545.271 44.8229 545.312 44.6562C544.271 45.9688 543.271 47.0521 542.312 47.9062C541.375 48.7604 540.458 49.4375 539.562 49.9375C538.688 50.4375 537.833 50.7812 537 50.9688C536.188 51.1771 535.406 51.2812 534.656 51.2812C533.865 51.2812 533.115 51.1458 532.406 50.875C531.719 50.625 531.115 50.25 530.594 49.75C530.052 49.25 529.635 48.6354 529.344 47.9062C529.031 47.1771 528.875 46.3333 528.875 45.375C528.875 44.1875 529.146 42.8333 529.688 41.3125C530.208 39.7708 531.146 38.1146 532.5 36.3438C533.646 34.8229 534.833 33.5417 536.062 32.5C537.312 31.4583 538.531 30.625 539.719 30C540.927 29.3542 542.073 28.8958 543.156 28.625C544.24 28.3542 545.208 28.2188 546.062 28.2188C547.979 28.2188 549.427 28.5417 550.406 29.1875C551.385 29.8125 551.979 30.7812 552.188 32.0938C552.604 31.5729 553.042 31.0521 553.5 30.5312C553.958 30.0104 554.427 29.4792 554.906 28.9375L555.906 29.375ZM546.312 41.25C546.583 40.8125 546.917 40.2604 547.312 39.5938C547.708 38.9062 548.125 38.2083 548.562 37.5C549 36.7708 549.427 36.0729 549.844 35.4062C550.26 34.7396 550.625 34.1771 550.938 33.7188C550.938 33.5312 550.906 33.2292 550.844 32.8125C550.802 32.3958 550.667 31.9792 550.438 31.5625C550.208 31.125 549.844 30.75 549.344 30.4375C548.844 30.125 548.146 29.9688 547.25 29.9688C546.604 29.9688 545.875 30.0729 545.062 30.2812C544.271 30.4688 543.417 30.8021 542.5 31.2812C541.604 31.7396 540.677 32.3542 539.719 33.125C538.76 33.8958 537.802 34.8542 536.844 36C535.406 37.7292 534.292 39.4688 533.5 41.2188C532.729 42.9479 532.344 44.5104 532.344 45.9062C532.344 47.0938 532.615 48.0104 533.156 48.6562C533.698 49.3021 534.469 49.625 535.469 49.625C536.615 49.625 537.688 49.375 538.688 48.875C539.688 48.3542 540.625 47.6875 541.5 46.875C542.375 46.0625 543.208 45.1667 544 44.1875C544.792 43.1875 545.562 42.2083 546.312 41.25ZM577.594 39.375C577.281 39.8333 576.906 40.4583 576.469 41.25C576.052 42.0208 575.562 42.8646 575 43.7812C574.438 44.6771 573.812 45.5938 573.125 46.5312C572.458 47.4688 571.719 48.3125 570.906 49.0625C570.115 49.8125 569.25 50.4271 568.312 50.9062C567.375 51.3854 566.375 51.625 565.312 51.625C564.729 51.625 564.177 51.5312 563.656 51.3438C563.135 51.1771 562.677 50.9062 562.281 50.5312C561.885 50.1562 561.573 49.6979 561.344 49.1562C561.115 48.5938 561 47.9375 561 47.1875C561 46.1667 561.198 45.1042 561.594 44C562.01 42.875 562.49 41.7917 563.031 40.75C563.573 39.7083 564.115 38.7604 564.656 37.9062C565.198 37.0312 565.594 36.3333 565.844 35.8125C566.094 35.2917 566.219 34.8438 566.219 34.4688C566.219 34.1979 566.125 33.9583 565.938 33.75C565.771 33.5417 565.552 33.3438 565.281 33.1562C565.031 32.9479 564.76 32.7396 564.469 32.5312C564.198 32.3021 563.969 32.0312 563.781 31.7188C563.26 32.5521 562.729 33.3958 562.188 34.25C561.708 34.9792 561.188 35.8021 560.625 36.7188C560.062 37.6146 559.521 38.5 559 39.375L557.875 38.5L564.562 28.0312L565.469 28.5C565.427 28.625 565.354 28.8229 565.25 29.0938C565.167 29.3646 565.125 29.6562 565.125 29.9688C565.125 30.1979 565.156 30.4271 565.219 30.6562C565.302 30.8646 565.458 31.0625 565.688 31.25C566.521 32 567.177 32.5833 567.656 33C568.135 33.3958 568.479 33.7188 568.688 33.9688C568.917 34.1979 569.052 34.3958 569.094 34.5625C569.156 34.7083 569.188 34.9062 569.188 35.1562C569.188 35.4062 569.146 35.7083 569.062 36.0625C568.979 36.4167 568.833 36.8438 568.625 37.3438C568.438 37.8438 568.167 38.4375 567.812 39.125C567.479 39.7917 567.052 40.5729 566.531 41.4688C566.219 42.0104 565.906 42.5625 565.594 43.125C565.302 43.6667 565.031 44.2188 564.781 44.7812C564.552 45.3438 564.365 45.9062 564.219 46.4688C564.073 47.0312 564 47.5729 564 48.0938C564 48.4896 564.052 48.8125 564.156 49.0625C564.281 49.2917 564.438 49.4688 564.625 49.5938C564.812 49.7188 565.01 49.8021 565.219 49.8438C565.448 49.8854 565.667 49.9062 565.875 49.9062C566.562 49.9062 567.24 49.7083 567.906 49.3125C568.594 48.8958 569.26 48.3646 569.906 47.7188C570.573 47.0729 571.208 46.3438 571.812 45.5312C572.438 44.6979 573.031 43.8542 573.594 43C574.156 42.1458 574.677 41.3333 575.156 40.5625C575.635 39.7708 576.062 39.0833 576.438 38.5L577.594 39.375ZM578.688 39.1875C579.771 37.6875 580.917 36.25 582.125 34.875C583.354 33.4792 584.594 32.25 585.844 31.1875C587.094 30.1042 588.354 29.2396 589.625 28.5938C590.896 27.9479 592.135 27.625 593.344 27.625C594.094 27.625 594.708 27.7396 595.188 27.9688C595.667 28.1979 596.042 28.4896 596.312 28.8438C596.604 29.1979 596.802 29.6042 596.906 30.0625C597.031 30.5 597.094 30.9375 597.094 31.375C597.094 32 596.969 32.6771 596.719 33.4062C596.49 34.1354 596.125 34.875 595.625 35.625C595.146 36.3542 594.531 37.0625 593.781 37.75C593.031 38.4167 592.135 39.0208 591.094 39.5625C591.323 40.1042 591.438 40.7604 591.438 41.5312C591.438 42.0104 591.375 42.5 591.25 43C591.125 43.4792 590.99 43.9583 590.844 44.4375C590.698 44.9167 590.562 45.4062 590.438 45.9062C590.312 46.3854 590.25 46.875 590.25 47.375C590.25 47.625 590.26 47.8646 590.281 48.0938C590.323 48.3229 590.385 48.5312 590.469 48.7188C590.573 48.9062 590.719 49.0625 590.906 49.1875C591.115 49.2917 591.396 49.3438 591.75 49.3438C592.167 49.3438 592.646 49.1771 593.188 48.8438C593.729 48.4896 594.302 48.0312 594.906 47.4688C595.51 46.9062 596.125 46.2604 596.75 45.5312C597.396 44.7812 598.021 44 598.625 43.1875C599.229 42.375 599.812 41.5729 600.375 40.7812C600.938 39.9688 601.448 39.2083 601.906 38.5L603.062 39.375C602 40.9583 600.958 42.4688 599.938 43.9062C598.938 45.3438 597.927 46.6042 596.906 47.6875C595.906 48.7708 594.885 49.6354 593.844 50.2812C592.802 50.9271 591.729 51.25 590.625 51.25C590.188 51.25 589.729 51.1875 589.25 51.0625C588.792 50.9375 588.365 50.7292 587.969 50.4375C587.594 50.1667 587.281 49.8021 587.031 49.3438C586.781 48.8854 586.656 48.3229 586.656 47.6562C586.656 46.8646 586.854 45.9375 587.25 44.875C587.604 43.875 587.865 43.0417 588.031 42.375C588.198 41.6875 588.292 41.1146 588.312 40.6562C587.875 40.7604 587.406 40.8542 586.906 40.9375C586.427 41.0208 585.969 41.0625 585.531 41.0625C585.302 41.0625 585.052 41.0417 584.781 41C584.51 40.9375 584.26 40.8438 584.031 40.7188C583.802 40.5938 583.604 40.4375 583.438 40.25C583.292 40.0417 583.219 39.7812 583.219 39.4688C583.219 39.1562 583.312 38.8646 583.5 38.5938C583.708 38.3021 583.979 38.0521 584.312 37.8438C584.667 37.6146 585.083 37.4375 585.562 37.3125C586.042 37.1875 586.573 37.125 587.156 37.125C588.24 37.125 589.167 37.4167 589.938 38C590.688 37.4167 591.302 36.7812 591.781 36.0938C592.281 35.4062 592.667 34.7396 592.938 34.0938C593.208 33.4479 593.396 32.875 593.5 32.375C593.604 31.8542 593.656 31.4688 593.656 31.2188C593.656 30.5312 593.531 30.0625 593.281 29.8125C593.031 29.5417 592.729 29.4062 592.375 29.4062C591.708 29.4062 590.958 29.625 590.125 30.0625C589.312 30.5 588.458 31.0938 587.562 31.8438C586.688 32.5938 585.781 33.4583 584.844 34.4375C583.927 35.4167 583.021 36.4479 582.125 37.5312C581.25 38.6146 580.396 39.7083 579.562 40.8125C578.75 41.9167 578 42.9583 577.312 43.9375C576.688 44.9792 576.125 45.9479 575.625 46.8438C575.146 47.7396 574.74 48.5104 574.406 49.1562C574.073 49.8021 573.812 50.2917 573.625 50.625C573.438 50.9583 573.333 51.0729 573.312 50.9688L570.219 50.1562C572.677 44.5521 575.167 38.9479 577.688 33.3438C580.208 27.7396 582.865 22.0729 585.656 16.3438C586.073 15.5104 586.542 14.6042 587.062 13.625C587.604 12.625 588.177 11.6354 588.781 10.6562C589.406 9.65625 590.062 8.6875 590.75 7.75C591.458 6.8125 592.177 5.98958 592.906 5.28125C593.656 4.55208 594.417 3.97917 595.188 3.5625C595.958 3.125 596.729 2.90625 597.5 2.90625C598.312 2.90625 598.969 3.13542 599.469 3.59375C599.99 4.05208 600.25 4.78125 600.25 5.78125C600.25 7.15625 599.875 8.83333 599.125 10.8125C598.396 12.7708 597.302 14.8542 595.844 17.0625C594.385 19.2708 592.562 21.5104 590.375 23.7812C588.208 26.0312 585.677 28.125 582.781 30.0625L578.688 39.1875ZM584.156 27.0625C586.677 25.1042 588.844 23.0938 590.656 21.0312C592.49 18.9479 593.99 16.9479 595.156 15.0312C596.344 13.1146 597.208 11.3438 597.75 9.71875C598.312 8.07292 598.594 6.69792 598.594 5.59375C598.594 5.28125 598.51 5.03125 598.344 4.84375C598.177 4.65625 597.917 4.5625 597.562 4.5625C596.792 4.5625 596 4.94792 595.188 5.71875C594.375 6.46875 593.448 7.71875 592.406 9.46875C591.385 11.2188 590.208 13.5312 588.875 16.4062C587.542 19.2812 585.969 22.8333 584.156 27.0625ZM588.156 39.25C588.052 39.0208 587.875 38.8229 587.625 38.6562C587.396 38.4688 587.135 38.375 586.844 38.375C586.24 38.375 585.708 38.5 585.25 38.75C584.792 39 584.562 39.2396 584.562 39.4688C584.562 39.6354 584.656 39.75 584.844 39.8125C585.052 39.8542 585.24 39.875 585.406 39.875C585.948 39.875 586.448 39.8125 586.906 39.6875C587.365 39.5625 587.781 39.4167 588.156 39.25ZM602.812 43.0312C602.771 43.2812 602.74 43.5312 602.719 43.7812C602.698 44.0312 602.688 44.2812 602.688 44.5312C602.688 45.2812 602.792 46 603 46.6875C603.229 47.3542 603.552 47.9479 603.969 48.4688C604.406 48.9688 604.938 49.3646 605.562 49.6562C606.208 49.9479 606.938 50.0938 607.75 50.0938C610.479 50.0938 613.115 49.1667 615.656 47.3125C618.198 45.4583 620.729 42.5208 623.25 38.5L624.312 39.4375C622.938 41.7292 621.542 43.6667 620.125 45.25C618.708 46.8125 617.292 48.0833 615.875 49.0625C614.479 50.0417 613.104 50.75 611.75 51.1875C610.396 51.625 609.104 51.8438 607.875 51.8438C606.979 51.8438 606.031 51.7188 605.031 51.4688C604.031 51.2188 603.104 50.8021 602.25 50.2188C601.417 49.6354 600.729 48.8542 600.188 47.875C599.625 46.8958 599.344 45.6771 599.344 44.2188C599.344 42.6562 599.615 41.1562 600.156 39.7188C600.677 38.2604 601.365 36.9062 602.219 35.6562C603.073 34.4062 604.052 33.2708 605.156 32.25C606.26 31.2083 607.375 30.3229 608.5 29.5938C609.646 28.8646 610.76 28.3021 611.844 27.9062C612.927 27.4896 613.885 27.2812 614.719 27.2812C615.26 27.2812 615.812 27.3646 616.375 27.5312C616.938 27.6979 617.438 27.9583 617.875 28.3125C618.333 28.6667 618.698 29.1354 618.969 29.7188C619.26 30.3021 619.406 31 619.406 31.8125C619.406 32.9167 619.146 33.9583 618.625 34.9375C618.125 35.8958 617.448 36.7917 616.594 37.625C615.74 38.4375 614.75 39.1771 613.625 39.8438C612.5 40.4896 611.323 41.0417 610.094 41.5C608.865 41.9583 607.625 42.3229 606.375 42.5938C605.125 42.8646 603.938 43.0104 602.812 43.0312ZM603.062 41.6875C604.458 41.5417 605.771 41.25 607 40.8125C608.229 40.375 609.354 39.8438 610.375 39.2188C611.396 38.5729 612.302 37.875 613.094 37.125C613.906 36.375 614.583 35.6146 615.125 34.8438C615.667 34.0729 616.083 33.3333 616.375 32.625C616.667 31.9167 616.812 31.2812 616.812 30.7188C616.812 30.1562 616.656 29.7083 616.344 29.375C616.052 29.0417 615.698 28.875 615.281 28.875C614.365 28.875 613.333 29.2083 612.188 29.875C611.042 30.5208 609.896 31.4271 608.75 32.5938C607.604 33.7396 606.521 35.0938 605.5 36.6562C604.5 38.2188 603.688 39.8958 603.062 41.6875ZM628.094 24.375C628.302 24.0208 628.667 23.4062 629.188 22.5312C629.729 21.6562 630.354 20.6875 631.062 19.625C631.792 18.5625 632.573 17.5 633.406 16.4375C634.26 15.3542 635.094 14.4375 635.906 13.6875L637.312 14.5312C636.417 16.0104 635.5 17.5833 634.562 19.25C633.625 20.8958 632.698 22.6042 631.781 24.375H641.969L641.344 26H630.938C630 27.875 629.115 29.7396 628.281 31.5938C627.469 33.4479 626.75 35.2188 626.125 36.9062C625.5 38.5938 625.01 40.1771 624.656 41.6562C624.302 43.1146 624.125 44.3854 624.125 45.4688C624.125 46.8229 624.438 47.8021 625.062 48.4062C625.688 48.9896 626.458 49.2812 627.375 49.2812C628.188 49.2812 629.021 49.0417 629.875 48.5625C630.729 48.0625 631.562 47.4375 632.375 46.6875C633.208 45.9375 633.99 45.1146 634.719 44.2188C635.469 43.3229 636.125 42.4792 636.688 41.6875C637.271 40.8958 637.75 40.2083 638.125 39.625C638.5 39.0208 638.729 38.6458 638.812 38.5L639.969 39.375C639.24 40.5833 638.417 41.8646 637.5 43.2188C636.583 44.5729 635.562 45.8333 634.438 47C633.333 48.1458 632.125 49.1042 630.812 49.875C629.5 50.625 628.083 51 626.562 51C625.625 51 624.802 50.8333 624.094 50.5C623.406 50.1667 622.823 49.7083 622.344 49.125C621.865 48.5208 621.51 47.8125 621.281 47C621.031 46.1875 620.906 45.3021 620.906 44.3438C620.906 43.7188 621.01 42.8333 621.219 41.6875C621.406 40.5417 621.74 39.1875 622.219 37.625C622.698 36.0417 623.333 34.2708 624.125 32.3125C624.938 30.3542 625.958 28.25 627.188 26H622L622.625 24.375H628.094Z" fill="white"/>
</svg>
